<?xml version="1.0" standalone="no"?>
<!DOCTYPE svg PUBLIC "-//W3C//DTD SVG 20010904//EN"
 "http://www.w3.org/TR/2001/REC-SVG-20010904/DTD/svg10.dtd">
<svg version="1.0" xmlns="http://www.w3.org/2000/svg"
 width="800px" height="800px" viewBox="0 0 600.000000 600.000000"
 preserveAspectRatio="xMidYMid meet">
<metadata>
Created by potrace 1.13, written by Peter Selinger 2001-2015
</metadata>
<g transform="translate(0.000000,600.000000) scale(0.100000,-0.100000)"
fill="#f42e2e" stroke="none">
<path d="M3685 5498 c-545 -61 -1026 -428 -1225 -935 -21 -52 -40 -96 -44
-100 -3 -3 -6 12 -6 35 l0 42 -900 0 -900 0 0 -1975 0 -1975 2400 0 2400 0 0
1500 0 1500 -61 0 c-34 0 -58 4 -55 9 4 5 16 54 28 108 32 145 32 454 0 600
-42 194 -118 376 -221 530 -314 469 -859 724 -1416 661z m273 -1115 l2 -353
350 0 350 0 0 -100 0 -100 -350 0 -350 0 0 -345 0 -345 -100 0 -100 0 0 345 0
345 -350 0 -350 0 0 100 0 100 350 0 350 0 0 348 c0 192 3 352 7 356 4 4 48 5
98 4 l90 -3 3 -352z m-1668 -20 c0 -32 0 -248 0 -480 l0 -423 82 0 83 -1 52
-107 c203 -420 579 -712 1046 -814 87 -19 132 -22 302 -22 184 0 210 2 320 28
416 97 751 340 965 699 32 53 70 127 86 163 21 50 32 64 46 62 18 -3 19 -41
19 -1381 l0 -1378 -2278 0 -2278 1 -3 1855 -2 1855 780 0 780 0 0 -57z"/>
<path d="M1560 2380 c-274 -38 -516 -238 -605 -500 -90 -264 -29 -547 162
-751 159 -169 358 -249 588 -236 368 20 668 307 701 672 l7 75 -82 0 -81 0 0
-37 c-1 -127 -70 -276 -179 -383 -117 -115 -249 -170 -404 -170 -103 0 -167
15 -262 60 -366 177 -445 652 -156 941 112 112 264 178 409 179 110 0 254 -47
346 -113 l48 -35 -62 -40 -63 -40 29 -15 c25 -13 147 -69 311 -143 l53 -24 -6
193 c-3 105 -7 202 -10 215 -4 22 -5 22 -57 -13 -28 -19 -55 -35 -60 -35 -4 0
-32 20 -63 45 -147 120 -370 181 -564 155z"/>
</g>
</svg>
